<mxfile host="app.diagrams.net" modified="2022-02-03T17:17:25.939Z" agent="5.0 (X11)" etag="VKYNFiD_871Ziz8XXnNd" version="16.5.3" type="github">
  <diagram name="Page-1" id="0783ab3e-0a74-02c8-0abd-f7b4e66b4bec">
    <mxGraphModel dx="1070" dy="126" grid="1" gridSize="10" guides="1" tooltips="1" connect="1" arrows="1" fold="1" page="0" pageScale="1" pageWidth="850" pageHeight="1100" background="none" math="0" shadow="0">
      <root>
        <mxCell id="0" />
        <mxCell id="1" parent="0" />
        <mxCell id="0KOJprr270ZSuoiYRPMb-9" value="User Interaction / UI" style="swimlane;" vertex="1" parent="1">
          <mxGeometry x="60" y="500" width="360" height="1080" as="geometry" />
        </mxCell>
        <mxCell id="0KOJprr270ZSuoiYRPMb-12" value="" style="ellipse;html=1;shape=startState;fillColor=#000000;" vertex="1" parent="0KOJprr270ZSuoiYRPMb-9">
          <mxGeometry x="165" y="50" width="30" height="30" as="geometry" />
        </mxCell>
        <mxCell id="0KOJprr270ZSuoiYRPMb-13" value="" style="edgeStyle=orthogonalEdgeStyle;html=1;verticalAlign=bottom;endArrow=open;endSize=8;rounded=0;entryX=0.5;entryY=0;entryDx=0;entryDy=0;" edge="1" source="0KOJprr270ZSuoiYRPMb-12" parent="0KOJprr270ZSuoiYRPMb-9" target="0KOJprr270ZSuoiYRPMb-14">
          <mxGeometry relative="1" as="geometry">
            <mxPoint x="200" y="120" as="targetPoint" />
          </mxGeometry>
        </mxCell>
        <mxCell id="0KOJprr270ZSuoiYRPMb-17" value="" style="edgeStyle=orthogonalEdgeStyle;rounded=0;orthogonalLoop=1;jettySize=auto;html=1;" edge="1" parent="0KOJprr270ZSuoiYRPMb-9" source="0KOJprr270ZSuoiYRPMb-14" target="0KOJprr270ZSuoiYRPMb-16">
          <mxGeometry relative="1" as="geometry" />
        </mxCell>
        <mxCell id="0KOJprr270ZSuoiYRPMb-14" value="User clicks on create job button" style="rounded=1;whiteSpace=wrap;html=1;arcSize=40;" vertex="1" parent="0KOJprr270ZSuoiYRPMb-9">
          <mxGeometry x="120" y="100" width="120" height="40" as="geometry" />
        </mxCell>
        <mxCell id="0KOJprr270ZSuoiYRPMb-16" value="User is prompted to enter email and password" style="rounded=1;whiteSpace=wrap;html=1;arcSize=40;" vertex="1" parent="0KOJprr270ZSuoiYRPMb-9">
          <mxGeometry x="120" y="160" width="120" height="50" as="geometry" />
        </mxCell>
        <mxCell id="0KOJprr270ZSuoiYRPMb-37" style="edgeStyle=orthogonalEdgeStyle;rounded=0;orthogonalLoop=1;jettySize=auto;html=1;exitX=0.5;exitY=1;exitDx=0;exitDy=0;entryX=0.5;entryY=0;entryDx=0;entryDy=0;" edge="1" parent="0KOJprr270ZSuoiYRPMb-9" source="0KOJprr270ZSuoiYRPMb-30" target="0KOJprr270ZSuoiYRPMb-35">
          <mxGeometry relative="1" as="geometry" />
        </mxCell>
        <mxCell id="0KOJprr270ZSuoiYRPMb-30" value="Job creation screen is displayed" style="rounded=1;whiteSpace=wrap;html=1;arcSize=40;" vertex="1" parent="0KOJprr270ZSuoiYRPMb-9">
          <mxGeometry x="120" y="330" width="120" height="40" as="geometry" />
        </mxCell>
        <mxCell id="0KOJprr270ZSuoiYRPMb-41" style="edgeStyle=orthogonalEdgeStyle;rounded=0;orthogonalLoop=1;jettySize=auto;html=1;exitX=0.5;exitY=1;exitDx=0;exitDy=0;entryX=0.5;entryY=0;entryDx=0;entryDy=0;" edge="1" parent="0KOJprr270ZSuoiYRPMb-9" source="0KOJprr270ZSuoiYRPMb-35" target="0KOJprr270ZSuoiYRPMb-38">
          <mxGeometry relative="1" as="geometry" />
        </mxCell>
        <mxCell id="0KOJprr270ZSuoiYRPMb-35" value="User enters relevant information" style="rounded=1;whiteSpace=wrap;html=1;arcSize=40;" vertex="1" parent="0KOJprr270ZSuoiYRPMb-9">
          <mxGeometry x="120" y="390" width="120" height="40" as="geometry" />
        </mxCell>
        <mxCell id="0KOJprr270ZSuoiYRPMb-42" value="No" style="edgeStyle=orthogonalEdgeStyle;rounded=0;orthogonalLoop=1;jettySize=auto;html=1;exitX=0;exitY=0.5;exitDx=0;exitDy=0;entryX=0;entryY=0.5;entryDx=0;entryDy=0;" edge="1" parent="0KOJprr270ZSuoiYRPMb-9" source="0KOJprr270ZSuoiYRPMb-38" target="0KOJprr270ZSuoiYRPMb-35">
          <mxGeometry x="-0.0667" y="-10" relative="1" as="geometry">
            <Array as="points">
              <mxPoint x="80" y="490" />
              <mxPoint x="80" y="410" />
            </Array>
            <mxPoint as="offset" />
          </mxGeometry>
        </mxCell>
        <mxCell id="0KOJprr270ZSuoiYRPMb-38" value="Are all necessary fields filled with correct input?" style="rhombus;whiteSpace=wrap;html=1;" vertex="1" parent="0KOJprr270ZSuoiYRPMb-9">
          <mxGeometry x="90" y="450" width="180" height="80" as="geometry" />
        </mxCell>
        <mxCell id="0KOJprr270ZSuoiYRPMb-10" value="Backend" style="swimlane;" vertex="1" parent="1">
          <mxGeometry x="420" y="500" width="360" height="1080" as="geometry" />
        </mxCell>
        <mxCell id="0KOJprr270ZSuoiYRPMb-26" style="edgeStyle=orthogonalEdgeStyle;rounded=0;orthogonalLoop=1;jettySize=auto;html=1;exitX=0.5;exitY=1;exitDx=0;exitDy=0;entryX=0.5;entryY=0;entryDx=0;entryDy=0;" edge="1" parent="0KOJprr270ZSuoiYRPMb-10" source="0KOJprr270ZSuoiYRPMb-18" target="0KOJprr270ZSuoiYRPMb-20">
          <mxGeometry relative="1" as="geometry" />
        </mxCell>
        <mxCell id="0KOJprr270ZSuoiYRPMb-18" value="Account information is compared against the database of registered users" style="whiteSpace=wrap;html=1;rounded=1;arcSize=40;" vertex="1" parent="0KOJprr270ZSuoiYRPMb-10">
          <mxGeometry x="120" y="152.5" width="120" height="65" as="geometry" />
        </mxCell>
        <mxCell id="0KOJprr270ZSuoiYRPMb-20" value="Does the account exist in db?" style="rhombus;whiteSpace=wrap;html=1;" vertex="1" parent="0KOJprr270ZSuoiYRPMb-10">
          <mxGeometry x="130" y="240" width="100" height="70" as="geometry" />
        </mxCell>
        <mxCell id="0KOJprr270ZSuoiYRPMb-32" value="Job creation screen is pushed from backend" style="rounded=1;whiteSpace=wrap;html=1;arcSize=40;" vertex="1" parent="0KOJprr270ZSuoiYRPMb-10">
          <mxGeometry x="120" y="330" width="120" height="40" as="geometry" />
        </mxCell>
        <mxCell id="0KOJprr270ZSuoiYRPMb-22" value="yes" style="edgeStyle=orthogonalEdgeStyle;html=1;align=center;verticalAlign=middle;endArrow=open;endSize=8;rounded=0;exitX=0.5;exitY=1;exitDx=0;exitDy=0;entryX=0.5;entryY=0;entryDx=0;entryDy=0;" edge="1" source="0KOJprr270ZSuoiYRPMb-20" parent="0KOJprr270ZSuoiYRPMb-10" target="0KOJprr270ZSuoiYRPMb-32">
          <mxGeometry x="-1" y="20" relative="1" as="geometry">
            <mxPoint x="70" y="280" as="targetPoint" />
            <mxPoint as="offset" />
          </mxGeometry>
        </mxCell>
        <mxCell id="0KOJprr270ZSuoiYRPMb-19" value="" style="edgeStyle=orthogonalEdgeStyle;rounded=0;orthogonalLoop=1;jettySize=auto;html=1;" edge="1" parent="1" source="0KOJprr270ZSuoiYRPMb-16" target="0KOJprr270ZSuoiYRPMb-18">
          <mxGeometry relative="1" as="geometry" />
        </mxCell>
        <mxCell id="0KOJprr270ZSuoiYRPMb-34" style="edgeStyle=orthogonalEdgeStyle;rounded=0;orthogonalLoop=1;jettySize=auto;html=1;exitX=0;exitY=0.5;exitDx=0;exitDy=0;entryX=1;entryY=0.5;entryDx=0;entryDy=0;" edge="1" parent="1" source="0KOJprr270ZSuoiYRPMb-32" target="0KOJprr270ZSuoiYRPMb-30">
          <mxGeometry relative="1" as="geometry" />
        </mxCell>
        <mxCell id="0KOJprr270ZSuoiYRPMb-21" value="no" style="edgeStyle=orthogonalEdgeStyle;html=1;align=center;verticalAlign=middle;endArrow=open;endSize=8;rounded=0;exitX=0;exitY=0.5;exitDx=0;exitDy=0;entryX=0.5;entryY=1;entryDx=0;entryDy=0;" edge="1" source="0KOJprr270ZSuoiYRPMb-20" parent="1" target="0KOJprr270ZSuoiYRPMb-16">
          <mxGeometry x="-0.8378" y="-10" relative="1" as="geometry">
            <mxPoint x="290" y="770" as="targetPoint" />
            <mxPoint x="530" y="800" as="sourcePoint" />
            <mxPoint as="offset" />
          </mxGeometry>
        </mxCell>
        <mxCell id="0KOJprr270ZSuoiYRPMb-43" value="&lt;b&gt;&lt;font style=&quot;font-size: 18px&quot;&gt;Customer creates job&lt;/font&gt;&lt;/b&gt;" style="text;html=1;strokeColor=none;fillColor=none;align=center;verticalAlign=middle;whiteSpace=wrap;rounded=0;" vertex="1" parent="1">
          <mxGeometry x="270" y="470" width="290" height="30" as="geometry" />
        </mxCell>
      </root>
    </mxGraphModel>
  </diagram>
</mxfile>
